Coordinates
version=1
nRows=22
nColumns=32
inDegrees=yes

Units are S.I. units (second, meters, Newtons, ...)
If the header above contains a line with 'inDegrees', this indicates whether rotational values are in degrees (yes) or radians (no).

endheader
time	pelvis_tilt	pelvis_list	pelvis_rotation	pelvis_tx	pelvis_ty	pelvis_tz	hip_flexion_r	hip_adduction_r	hip_rotation_r	knee_angle_r	knee_adduction_r	med_cond_adduction_r	lat_cond_adduction_r	patella_r_constrained_knee_angle	ankle_angle_r	subtalar_angle_r	mtp_angle_r	hip_flexion_l	hip_adduction_l	hip_rotation_l	knee_angle_l	knee_adduction_l	med_cond_adduction_l	lat_cond_adduction_l	patella_l_constrained_knee_angle	ankle_angle_l	subtalar_angle_l	mtp_angle_l	lumbar_extension	lumbar_bending	lumbar_rotation
      1.98500000	    -22.15779649	      1.34635114	     -6.34765292	      0.14353018	      0.77466975	     -1.17784302	     59.78263546	    -29.95449930	    -11.56469207	    -55.50014143	      4.63097515	      0.00000000	     -0.00000000	     -0.96866020	      7.41596764	     11.96652399	     -0.00000000	     54.15610343	    -40.11503264	    -24.26590965	    -55.98819445	      3.22567997	     -0.00000000	     -0.00000000	     -0.97717834	      7.21640252	     18.44465833	      0.00000000	     -3.25944202	      0.82454989	      3.02774946
      1.99000000	    -22.01039249	      1.30568477	     -6.32834719	      0.14480532	      0.77957366	     -1.17801174	     58.70104291	    -29.67123014	    -12.06997334	    -54.20898292	      4.50294031	     -0.00000000	     -0.00000000	     -0.94612524	      6.91412653	     11.71759202	     -0.00000000	     53.07877635	    -39.73419318	    -24.84620538	    -54.73246532	      3.22212444	     -0.00000000	     -0.00000000	     -0.95526173	      6.75461798	     18.36481737	      0.00000000	     -3.17014733	      0.81085249	      2.78354410
      1.99500000	    -22.44329922	      1.11651341	     -6.04519244	      0.14543948	      0.78271044	     -1.17893439	     58.20949545	    -29.50033592	    -12.65787711	    -53.10158156	      4.51067835	     -0.00000000	     -0.00000000	     -0.92679744	      6.38562295	     11.25374916	     -0.00000000	     53.26398434	    -39.25328924	    -24.71966744	    -53.83772119	      3.09254728	     -0.00000000	     -0.00000000	     -0.93964550	      6.34057469	     18.26435990	      0.00000000	     -2.33089848	      1.10280221	      2.25922377
      2.00000000	    -21.51804788	      1.59447044	     -6.20478065	      0.14763872	      0.78959125	     -1.17852235	     56.53269190	    -29.52317536	    -12.66244509	    -51.63817362	      4.42502466	     -0.00000000	     -0.00000000	     -0.90125615	      5.88765875	     11.30727038	      0.00000000	     50.48325582	    -38.52308215	    -26.58361867	    -52.08766314	      2.98306293	     -0.00000000	     -0.00000000	     -0.90910122	      5.84211644	     18.26098501	     -0.00000000	     -3.20893766	      0.59285812	      2.74655810
      2.00500000	    -21.32455388	      1.96142527	     -6.20338111	      0.14890839	      0.79426709	     -1.17856630	     55.74147065	    -29.53487557	    -12.59426105	    -50.43577424	      4.44309666	      0.00000000	      0.00000000	     -0.88027032	      5.38865742	     10.99762114	      0.00000000	     49.13094947	    -37.76001131	    -27.72684622	    -50.73233413	      2.78134595	     -0.00000000	     -0.00000000	     -0.88544627	      5.37774863	     18.22517307	     -0.00000000	     -3.14639565	      0.20345856	      2.80462071
      2.01000000	    -21.11063855	      2.21014554	     -6.20456429	      0.15028152	      0.79890342	     -1.17867077	     54.81776652	    -29.47515195	    -12.70157599	    -49.18895502	      4.42075652	      0.00000000	      0.00000000	     -0.85850922	      4.87390199	     10.74872999	     -0.00000000	     47.85017363	    -37.09171995	    -28.70704791	    -49.40159370	      2.62551554	      0.00000000	      0.00000000	     -0.86222047	      4.90638307	     18.17295120	     -0.00000000	     -3.09680766	     -0.10246629	      2.74122044
      2.01500000	    -20.84380560	      1.95487666	     -6.07280814	      0.15182235	      0.80369315	     -1.17925695	     53.39120439	    -29.15329375	    -13.61911669	    -47.81781346	      4.19257161	      0.00000000	      0.00000000	     -0.83457829	      4.37926405	     10.62405002	      0.00000000	     46.89462137	    -36.72842253	    -28.96623963	    -48.16809998	      2.56707202	     -0.00000000	     -0.00000000	     -0.84069194	      4.45374050	     18.09107455	     -0.00000000	     -3.17566144	      0.17949075	      2.38654464
      2.02000000	    -20.60742630	      2.47395020	     -6.12025583	      0.15318573	      0.80814114	     -1.17917037	     52.67139818	    -29.27283776	    -13.31016606	    -46.62950022	      4.27118119	      0.00000000	      0.00000000	     -0.81383831	      3.83472465	     10.28720527	      0.00000000	     45.42829995	    -35.80829963	    -30.23037541	    -46.72204455	      2.34843906	     -0.00000000	     -0.00000000	     -0.81545351	      3.96767547	     18.07050536	     -0.00000000	     -3.14200050	     -0.36778349	      2.59339641
      2.02500000	    -20.24490357	      2.27585888	     -5.94632570	      0.15487141	      0.81299519	     -1.17982950	     51.13622752	    -29.05077556	    -14.23271258	    -45.22412893	      4.06465235	     -0.00000000	     -0.00000000	     -0.78930995	      3.32322008	     10.25055000	     -0.00000000	     44.34797342	    -35.32093172	    -30.55006085	    -45.41359956	      2.23440585	     -0.00000000	     -0.00000000	     -0.79261684	      3.49102773	     18.00216168	     -0.00000000	     -3.34409468	     -0.11559756	      2.28068002
      2.03000000	    -20.05149228	      2.76346487	     -5.99698318	      0.15623990	      0.81710159	     -1.17979954	     50.45269412	    -29.14586631	    -13.96827722	    -44.05184488	      4.11186235	     -0.00000000	     -0.00000000	     -0.76884973	      2.78935477	      9.88188919	      0.00000000	     43.04189505	    -34.40608379	    -31.73553664	    -44.01533138	      1.97732881	      0.00000000	      0.00000000	     -0.76821245	      2.98592323	     17.97280003	     -0.00000000	     -3.23719595	     -0.66258913	      2.40422950
      2.03500000	    -19.65173847	      2.37644339	     -5.77662289	      0.15801596	      0.82186594	     -1.18063692	     48.72320877	    -28.78805560	    -15.16485694	    -42.58004378	      3.83569953	      0.00000000	      0.00000000	     -0.74316196	      2.25140867	      9.87594004	     -0.00000000	     42.05443591	    -34.06075502	    -31.80455064	    -42.75595904	      1.90444149	      0.00000000	      0.00000000	     -0.74623226	      2.48460787	     17.90597081	     -0.00000000	     -3.49793086	     -0.26472845	      1.88254592
      2.04000000	    -19.45758567	      3.02875296	     -5.85992529	      0.15933069	      0.82570429	     -1.18048380	     48.18569851	    -29.02266684	    -14.66547503	    -41.48110204	      3.94631960	     -0.00000000	     -0.00000000	     -0.72398181	      1.74190474	      9.49713580	     -0.00000000	     40.70794657	    -32.96331809	    -33.10731626	    -41.28310134	      1.59079049	      0.00000000	      0.00000000	     -0.72052604	      1.99129528	     17.88572940	     -0.00000000	     -3.39180107	     -0.91934185	      2.21779645
      2.04500000	    -19.01395726	      2.77576593	     -5.71955817	      0.16110783	      0.83032623	     -1.18108152	     46.53270679	    -28.69369453	    -15.58169208	    -40.01459795	      3.75339141	      0.00000000	      0.00000000	     -0.69838648	      1.18539491	      9.38659381	      0.00000000	     39.55111838	    -32.53455104	    -33.34752664	    -39.93780029	      1.51394288	     -0.00000000	     -0.00000000	     -0.69704611	      1.47219099	     17.82366559	     -0.00000000	     -3.70618137	     -0.58095038	      2.00162634
      2.05000000	    -18.80805549	      3.17455281	     -5.70378083	      0.16252167	      0.83399151	     -1.18122939	     45.76575020	    -28.81433844	    -15.52434685	    -38.87500827	      3.75343997	     -0.00000000	     -0.00000000	     -0.67849689	      0.69186625	      9.10368227	     -0.00000000	     38.43294605	    -31.59083653	    -34.24968159	    -38.55217945	      1.24107457	      0.00000000	      0.00000000	     -0.67286247	      0.97949963	     17.79385398	     -0.00000000	     -3.63849504	     -0.94166834	      2.14586243
      2.05500000	    -18.50981374	      3.32016329	     -5.62278771	      0.16407505	      0.83783003	     -1.18160348	     44.65995160	    -28.77879117	    -15.87262974	    -37.62929614	      3.66630027	     -0.00000000	     -0.00000000	     -0.65675511	      0.17381755	      8.92875984	      0.00000000	     37.33880695	    -30.82208969	    -34.85161144	    -37.18062610	      1.02202312	     -0.00000000	     -0.00000000	     -0.64892434	      0.48905104	     17.75163749	     -0.00000000	     -3.70243968	     -1.15861171	      1.92380011
      2.06000000	    -18.05975050	      3.06732711	     -5.46589483	      0.16585741	      0.84208424	     -1.18223153	     43.01037059	    -28.42542361	    -16.77474660	    -36.14125248	      3.45895857	      0.00000000	      0.00000000	     -0.63078385	     -0.38993324	      8.89034031	     -0.00000000	     36.23210748	    -30.39202579	    -35.01793186	    -35.86473826	      0.94883870	     -0.00000000	     -0.00000000	     -0.62595777	     -0.05609783	     17.68239576	     -0.00000000	     -4.01134690	     -0.93357121	      1.49999852
      2.06500000	    -17.88840992	      3.53438792	     -5.42221301	      0.16724422	      0.84520817	     -1.18241869	     42.36891784	    -28.68606560	    -16.70686603	    -35.15340674	      3.49417175	      0.00000000	      0.00000000	     -0.61354269	     -0.82529544	      8.63232177	      0.00000000	     35.21978408	    -29.32546573	    -35.82483109	    -34.45580671	      0.65442840	      0.00000000	      0.00000000	     -0.60136727	     -0.52277851	     17.64767720	      0.00000000	     -3.88278777	     -1.37129203	      1.64387608
      2.07000000	    -17.56073349	      3.51504710	     -5.33354171	      0.16886171	      0.84873464	     -1.18279672	     41.13875597	    -28.51323149	    -17.26434532	    -33.90636912	      3.37486969	     -0.00000000	     -0.00000000	     -0.59177778	     -1.31654453	      8.50416105	      0.00000000	     34.19260637	    -28.74369423	    -36.19574189	    -33.15206570	      0.53905949	     -0.00000000	     -0.00000000	     -0.57861270	     -1.00553479	     17.58599530	      0.00000000	     -4.00723576	     -1.31848894	      1.51697321
      2.07500000	    -17.28055129	      3.67621365	     -5.21008890	      0.17036129	      0.85201268	     -1.18326094	     40.07960899	    -28.52546428	    -17.60247179	    -32.70589226	      3.30874209	     -0.00000000	     -0.00000000	     -0.57082550	     -1.80600117	      8.33361337	      0.00000000	     33.22432362	    -27.90974993	    -36.60675717	    -31.78738684	      0.31625855	     -0.00000000	     -0.00000000	     -0.55479456	     -1.53064484	     17.52583523	      0.00000000	     -4.05497200	     -1.50735630	      1.32861518
      2.08000000	    -16.98022019	      3.70123857	     -5.11913772	      0.17189637	      0.85519446	     -1.18363645	     38.94742850	    -28.38905476	    -18.08590852	    -31.51609620	      3.20105837	     -0.00000000	     -0.00000000	     -0.55005965	     -2.31443553	      8.20367448	      0.00000000	     32.25763388	    -27.27900076	    -36.92228770	    -30.48349233	      0.19051241	      0.00000000	      0.00000000	     -0.53203731	     -2.02790602	     17.45165923	     -0.00000000	     -4.14539967	     -1.47227904	      1.26726717
      2.08500000	    -16.59405825	      3.57169123	     -5.00685006	      0.17357389	      0.85846395	     -1.18404863	     37.61064026	    -28.11345756	    -18.83503696	    -30.28001463	      2.99481579	      0.00000000	      0.00000000	     -0.52848595	     -2.77499717	      8.23855332	     -0.00000000	     31.23970976	    -26.80476555	    -37.12664869	    -29.21390065	      0.09760587	     -0.00000000	     -0.00000000	     -0.50987875	     -2.49457195	     17.38722823	      0.00000000	     -4.34459991	     -1.40835728	      0.92156497
      2.09000000	    -16.31127865	      3.91985417	     -4.80221481	      0.17500732	      0.86126143	     -1.18472710	     36.65151873	    -28.44303487	    -19.04373327	    -29.22609178	      3.10207438	      0.00000000	      0.00000000	     -0.51009153	     -3.22790545	      7.98377380	      0.00000000	     30.33542424	    -25.68900462	    -37.47143012	    -27.81410606	     -0.20958973	     -0.00000000	     -0.00000000	     -0.48544773	     -3.01608075	     17.28725978	      0.00000000	     -4.38442608	     -1.74253261	      0.77080477
